#Comment line ignore any data following # character 
#Hierarchical Translation and Rotation (.htr) file 
[Header]	
#Header keywords are followed by a single value 
FileType HTR		#Single word string
DataType HTRS		#Translation followed by rotation and scale data
FileVersion 1		#integer
NumSegments 84		#integer
NumFrames 2		#integer
DataFrameRate 30		#integer, data frame rate in this file
EulerRotationOrder ZYX
CalibrationUnits mm
RotationUnits Degrees
GlobalAxisofGravity Y
BoneLengthAxis Y
ScaleFactor 1.00
[SegmentNames&Hierarchy]
#CHILD	PARENT
MASTER GLOBAL
root MASTER
chest root
L_mid_tent01 root
R_mid_tent01 root
spine01 root
Bip01_Neck chest
L_humerus chest
R_humerus chest
weapon_bone chest
Bip01_Head Bip01_Neck
eye_left_bone Bip01_Head
eye_right_bone Bip01_Head
L_forearm L_humerus
L_front_hand L_forearm
L_weapon_bone L_forearm
L_front_hand01_01 L_front_hand
L_front_hand02_01 L_front_hand
L_front_hand03_01 L_front_hand
L_front_hand01_02 L_front_hand01_01
L_front_hand02_02 L_front_hand02_01
L_front_hand03_02 L_front_hand03_01
R_forearm R_humerus
R_front_hand R_forearm
R_weapon_bone R_forearm
R_front_hand01_01 R_front_hand
R_front_hand02_01 R_front_hand
R_front_hand03_01 R_front_hand
R_front_hand01_02 R_front_hand01_01
R_front_hand02_02 R_front_hand02_01
R_front_hand03_02 R_front_hand03_01
null_rope01_connect L_mid_tent01
Rope1_Seg01 null_rope01_connect
Rope1_Seg02 Rope1_Seg01
Rope1_Seg03 Rope1_Seg02
Rope1_Seg04 Rope1_Seg03
Rope1_Seg05 Rope1_Seg04
Rope1_Seg06 Rope1_Seg05
Rope1_Seg07 Rope1_Seg06
Rope1_Seg09 Rope1_Seg07
L_mid_hand01 Rope1_Seg09
L_mid_hand02 Rope1_Seg09
L_mid_hand03 Rope1_Seg09
null_rope02_connect R_mid_tent01
Rope2_Seg01 null_rope02_connect
Rope2_Seg02 Rope2_Seg01
Rope2_Seg03 Rope2_Seg02
Rope2_Seg04 Rope2_Seg03
Rope2_Seg05 Rope2_Seg04
Rope2_Seg06 Rope2_Seg05
Rope2_Seg07 Rope2_Seg06
Rope2_Seg09 Rope2_Seg07
R_mid_hand01 Rope2_Seg09
R_mid_hand02 Rope2_Seg09
R_mid_hand03 Rope2_Seg09
spine02 spine01
spine03 spine02
pelvis spine03
null_rope03_connect pelvis
null_rope04_connect pelvis
Rope3_Seg01 null_rope03_connect
Rope3_Seg02 Rope3_Seg01
Rope3_Seg03 Rope3_Seg02
Rope3_Seg04 Rope3_Seg03
Rope3_Seg05 Rope3_Seg04
Rope3_Seg06 Rope3_Seg05
Rope3_Seg07 Rope3_Seg06
Rope3_Seg08 Rope3_Seg07
Rope3_Seg09 Rope3_Seg08
R_rear_hand01 Rope3_Seg09
R_rear_hand02 Rope3_Seg09
R_rear_hand03 Rope3_Seg09
Rope4_Seg01 null_rope04_connect
Rope4_Seg02 Rope4_Seg01
Rope4_Seg03 Rope4_Seg02
Rope4_Seg04 Rope4_Seg03
Rope4_Seg05 Rope4_Seg04
Rope4_Seg06 Rope4_Seg05
Rope4_Seg07 Rope4_Seg06
Rope4_Seg08 Rope4_Seg07
Rope4_Seg09 Rope4_Seg08
L_rear_hand01 Rope4_Seg09
L_rear_hand02 Rope4_Seg09
L_rear_hand03 Rope4_Seg09
[BasePosition]
#SegmentName Tx, Ty, Tz, Rx, Ry, Rz, BoneLength
MASTER 0.000000 0.000000 0.000000 -90.000000 0.000000 0.000000 10.000000 
root 0.000000 0.000000 0.000000 0.000000 0.000000 0.000000 10.000000 
chest 0.000000 0.000000 0.000000 0.000000 0.000000 0.000000 10.000000 
L_mid_tent01 0.000000 0.000000 0.000000 0.000000 0.000000 0.000000 10.000000 
R_mid_tent01 0.000000 0.000000 0.000000 0.000000 0.000000 0.000000 10.000000 
spine01 0.000000 0.000000 0.000000 0.000000 0.000000 0.000000 10.000000 
Bip01_Neck 0.000000 0.000000 0.000000 0.000000 0.000000 0.000000 10.000000 
L_humerus 0.000000 0.000000 0.000000 0.000000 0.000000 0.000000 10.000000 
R_humerus 0.000000 0.000000 0.000000 0.000000 0.000000 0.000000 10.000000 
weapon_bone 0.000000 0.000000 0.000000 0.000000 0.000000 0.000000 10.000000 
Bip01_Head 0.000000 0.000000 0.000000 0.000000 0.000000 0.000000 10.000000 
eye_left_bone 0.000000 0.000000 0.000000 0.000000 0.000000 0.000000 10.000000 
eye_right_bone 0.000000 0.000000 0.000000 0.000000 0.000000 0.000000 10.000000 
L_forearm 0.000000 0.000000 0.000000 0.000000 0.000000 0.000000 10.000000 
L_front_hand 0.000000 0.000000 0.000000 0.000000 0.000000 0.000000 10.000000 
L_weapon_bone 0.000000 0.000000 0.000000 0.000000 0.000000 0.000000 10.000000 
L_front_hand01_01 0.000000 0.000000 0.000000 0.000000 0.000000 0.000000 10.000000 
L_front_hand02_01 0.000000 0.000000 0.000000 0.000000 0.000000 0.000000 10.000000 
L_front_hand03_01 0.000000 0.000000 0.000000 0.000000 0.000000 0.000000 10.000000 
L_front_hand01_02 0.000000 0.000000 0.000000 0.000000 0.000000 0.000000 10.000000 
L_front_hand02_02 0.000000 0.000000 0.000000 0.000000 0.000000 0.000000 10.000000 
L_front_hand03_02 0.000000 0.000000 0.000000 0.000000 0.000000 0.000000 10.000000 
R_forearm 0.000000 0.000000 0.000000 0.000000 0.000000 0.000000 10.000000 
R_front_hand 0.000000 0.000000 0.000000 0.000000 0.000000 0.000000 10.000000 
R_weapon_bone 0.000000 0.000000 0.000000 0.000000 0.000000 0.000000 10.000000 
R_front_hand01_01 0.000000 0.000000 0.000000 0.000000 0.000000 0.000000 10.000000 
R_front_hand02_01 0.000000 0.000000 0.000000 0.000000 0.000000 0.000000 10.000000 
R_front_hand03_01 0.000000 0.000000 0.000000 0.000000 0.000000 0.000000 10.000000 
R_front_hand01_02 0.000000 0.000000 0.000000 0.000000 0.000000 0.000000 10.000000 
R_front_hand02_02 0.000000 0.000000 0.000000 0.000000 0.000000 0.000000 10.000000 
R_front_hand03_02 0.000000 0.000000 0.000000 0.000000 0.000000 0.000000 10.000000 
null_rope01_connect 0.000000 0.000000 0.000000 0.000000 0.000000 0.000000 10.000000 
Rope1_Seg01 0.000000 0.000000 0.000000 0.000000 0.000000 0.000000 10.000000 
Rope1_Seg02 0.000000 0.000000 0.000000 0.000000 0.000000 0.000000 10.000000 
Rope1_Seg03 0.000000 0.000000 0.000000 0.000000 0.000000 0.000000 10.000000 
Rope1_Seg04 0.000000 0.000000 0.000000 0.000000 0.000000 0.000000 10.000000 
Rope1_Seg05 0.000000 0.000000 0.000000 0.000000 0.000000 0.000000 10.000000 
Rope1_Seg06 0.000000 0.000000 0.000000 0.000000 0.000000 0.000000 10.000000 
Rope1_Seg07 0.000000 0.000000 0.000000 0.000000 0.000000 0.000000 10.000000 
Rope1_Seg09 0.000000 0.000000 0.000000 0.000000 0.000000 0.000000 10.000000 
L_mid_hand01 0.000000 0.000000 0.000000 0.000000 0.000000 0.000000 10.000000 
L_mid_hand02 0.000000 0.000000 0.000000 0.000000 0.000000 0.000000 10.000000 
L_mid_hand03 0.000000 0.000000 0.000000 0.000000 0.000000 0.000000 10.000000 
null_rope02_connect 0.000000 0.000000 0.000000 0.000000 0.000000 0.000000 10.000000 
Rope2_Seg01 0.000000 0.000000 0.000000 0.000000 0.000000 0.000000 10.000000 
Rope2_Seg02 0.000000 0.000000 0.000000 0.000000 0.000000 0.000000 10.000000 
Rope2_Seg03 0.000000 0.000000 0.000000 0.000000 0.000000 0.000000 10.000000 
Rope2_Seg04 0.000000 0.000000 0.000000 0.000000 0.000000 0.000000 10.000000 
Rope2_Seg05 0.000000 0.000000 0.000000 0.000000 0.000000 0.000000 10.000000 
Rope2_Seg06 0.000000 0.000000 0.000000 0.000000 0.000000 0.000000 10.000000 
Rope2_Seg07 0.000000 0.000000 0.000000 0.000000 0.000000 0.000000 10.000000 
Rope2_Seg09 0.000000 0.000000 0.000000 0.000000 0.000000 0.000000 10.000000 
R_mid_hand01 0.000000 0.000000 0.000000 0.000000 0.000000 0.000000 10.000000 
R_mid_hand02 0.000000 0.000000 0.000000 0.000000 0.000000 0.000000 10.000000 
R_mid_hand03 0.000000 0.000000 0.000000 0.000000 0.000000 0.000000 10.000000 
spine02 0.000000 0.000000 0.000000 0.000000 0.000000 0.000000 10.000000 
spine03 0.000000 0.000000 0.000000 0.000000 0.000000 0.000000 10.000000 
pelvis 0.000000 0.000000 0.000000 0.000000 0.000000 0.000000 10.000000 
null_rope03_connect 0.000000 0.000000 0.000000 0.000000 0.000000 0.000000 10.000000 
null_rope04_connect 0.000000 0.000000 0.000000 0.000000 0.000000 0.000000 10.000000 
Rope3_Seg01 0.000000 0.000000 0.000000 0.000000 0.000000 0.000000 10.000000 
Rope3_Seg02 0.000000 0.000000 0.000000 0.000000 0.000000 0.000000 10.000000 
Rope3_Seg03 0.000000 0.000000 0.000000 0.000000 0.000000 0.000000 10.000000 
Rope3_Seg04 0.000000 0.000000 0.000000 0.000000 0.000000 0.000000 10.000000 
Rope3_Seg05 0.000000 0.000000 0.000000 0.000000 0.000000 0.000000 10.000000 
Rope3_Seg06 0.000000 0.000000 0.000000 0.000000 0.000000 0.000000 10.000000 
Rope3_Seg07 0.000000 0.000000 0.000000 0.000000 0.000000 0.000000 10.000000 
Rope3_Seg08 0.000000 0.000000 0.000000 0.000000 0.000000 0.000000 10.000000 
Rope3_Seg09 0.000000 0.000000 0.000000 0.000000 0.000000 0.000000 10.000000 
R_rear_hand01 0.000000 0.000000 0.000000 0.000000 0.000000 0.000000 10.000000 
R_rear_hand02 0.000000 0.000000 0.000000 0.000000 0.000000 0.000000 10.000000 
R_rear_hand03 0.000000 0.000000 0.000000 0.000000 0.000000 0.000000 10.000000 
Rope4_Seg01 0.000000 0.000000 0.000000 0.000000 0.000000 0.000000 10.000000 
Rope4_Seg02 0.000000 0.000000 0.000000 0.000000 0.000000 0.000000 10.000000 
Rope4_Seg03 0.000000 0.000000 0.000000 0.000000 0.000000 0.000000 10.000000 
Rope4_Seg04 0.000000 0.000000 0.000000 0.000000 0.000000 0.000000 10.000000 
Rope4_Seg05 0.000000 0.000000 0.000000 0.000000 0.000000 0.000000 10.000000 
Rope4_Seg06 0.000000 0.000000 0.000000 0.000000 0.000000 0.000000 10.000000 
Rope4_Seg07 0.000000 0.000000 0.000000 0.000000 0.000000 0.000000 10.000000 
Rope4_Seg08 0.000000 0.000000 0.000000 0.000000 0.000000 0.000000 10.000000 
Rope4_Seg09 0.000000 0.000000 0.000000 0.000000 0.000000 0.000000 10.000000 
L_rear_hand01 0.000000 0.000000 0.000000 0.000000 0.000000 0.000000 10.000000 
L_rear_hand02 0.000000 0.000000 0.000000 0.000000 0.000000 0.000000 10.000000 
L_rear_hand03 0.000000 0.000000 0.000000 0.000000 0.000000 0.000000 10.000000 
#Beginning of Data. Separated by tabs
#Fr	Tx	Ty	Tz	Rx	Ry	Rz	SF
[MASTER]
19 -0.001095 7586.895508 1099.483643 0.001660 0.001660 0.001660 7666.149414
20 -0.001141 7913.510742 985.793091 0.001660 0.001660 0.001660 7974.674805
[root]
19 -37.609970 -53.509518 1502.612793 -86.784233 -28.331976 -95.773682 1504.035522
20 -36.843449 -55.343025 1502.585815 -88.236916 -27.069160 -95.322441 1504.056030
[chest]
19 -84.512650 -34.090519 0.000000 -1.549005 1.773012 -173.901474 91.129311
20 -84.512650 -34.090519 0.000000 -1.625593 1.689580 -176.933563 91.129311
[L_mid_tent01]
19 27.299412 22.179302 -249.918701 -11.884887 14.201531 36.501766 252.381729
20 27.299429 22.179314 -249.918701 -13.440744 15.548207 35.302330 252.381729
[R_mid_tent01]
19 23.228794 24.509907 226.238495 -171.759644 -10.140551 37.740215 228.744751
20 23.228794 24.509907 226.238495 -169.669769 -10.727530 36.322334 228.744751
[spine01]
19 -0.361383 -0.195265 0.000000 0.002044 0.001154 31.099689 0.410763
20 -0.361383 -0.195265 0.000000 0.002040 0.001160 30.753468 0.410763
[Bip01_Neck]
19 165.484543 71.581718 0.000119 176.643677 -1.657967 43.431911 180.302734
20 165.484543 71.581718 0.000119 176.643677 -1.657967 43.431911 180.302734
[L_humerus]
19 -13.983130 -135.272980 -120.471481 -6.996181 64.017944 82.851799 181.680161
20 -13.983130 -135.272980 -120.471481 -6.948452 64.207237 82.911842 181.680161
[R_humerus]
19 -13.983309 -135.273102 125.287651 25.698759 -64.815109 70.025986 184.909012
20 -13.983309 -135.273102 125.287651 25.762817 -65.008659 69.957100 184.909012
[weapon_bone]
19 235.964890 -300.705902 0.000000 0.000000 -89.951546 -128.212341 382.234833
20 235.964890 -300.705902 0.000000 0.000000 -89.951546 -128.212341 382.234833
[Bip01_Head]
19 213.501373 185.557388 13.822186 4.439694 -0.993685 -43.899052 283.205658
20 213.459061 185.674744 12.306919 4.441027 -0.811580 -43.902115 283.180756
[eye_left_bone]
19 -24.626970 125.451866 -64.772606 0.000000 -90.000000 -99.840431 143.318359
20 -24.626970 125.451866 -64.772606 0.000000 -90.000000 -99.840431 143.318359
[eye_right_bone]
19 -24.626970 125.451866 64.327362 0.000000 -89.965736 80.156380 143.117676
20 -24.626970 125.451866 64.327362 0.000000 -89.965736 80.156380 143.117676
[L_forearm]
19 322.776093 0.000000 -0.000119 0.000429 -0.002308 -111.057777 322.776093
20 322.776093 0.000000 -0.000119 0.000428 -0.002308 -110.995781 322.776093
[L_front_hand]
19 241.149185 -0.042021 -3.300071 -178.667953 -1.835447 -27.422350 241.171753
20 241.149185 -0.042021 -3.300071 -178.667953 -1.835447 -27.422342 241.171753
[L_weapon_bone]
19 156.183838 0.000000 0.000000 0.000014 0.000007 0.000001 156.183838
20 156.183838 0.000000 0.000000 0.000014 0.000007 0.000001 156.183838
[L_front_hand01_01]
19 86.095154 20.947098 -0.655860 -0.291918 -0.522545 67.227623 88.609184
20 86.095154 20.947098 -0.655860 -0.299135 -0.518030 67.911949 88.609184
[L_front_hand02_01]
19 86.935165 -11.437475 24.513514 143.299133 -55.645813 -48.269917 91.046425
20 86.935165 -11.437475 24.513514 144.114838 -56.047688 -49.250378 91.046425
[L_front_hand03_01]
19 86.637497 -14.123976 -20.424902 -143.556335 53.862476 -50.232788 90.126129
20 86.637497 -14.123976 -20.424902 -144.319244 54.262909 -51.171421 90.126129
[L_front_hand01_02]
19 71.020905 -0.000179 0.000030 0.000316 -0.002326 -105.462708 71.020905
20 71.020905 -0.000179 0.000030 0.000317 -0.002326 -105.501518 71.020905
[L_front_hand02_02]
19 71.020927 -0.000119 0.000060 0.000316 -0.002326 -105.462708 71.020927
20 71.020927 -0.000119 0.000060 0.000317 -0.002326 -105.501518 71.020927
[L_front_hand03_02]
19 71.020905 -0.000060 0.000060 0.000316 -0.002326 -105.462708 71.020905
20 71.020905 -0.000060 0.000060 0.000317 -0.002326 -105.501518 71.020905
[R_forearm]
19 322.776428 -0.000060 0.000030 0.201138 0.068078 -109.722389 322.776428
20 322.776428 -0.000060 0.000030 0.201180 0.067954 -109.651779 322.776428
[R_front_hand]
19 238.847015 -0.006795 2.210259 -2.635298 -10.645462 -26.312506 238.857239
20 238.847015 -0.006795 2.210259 -2.635298 -10.645460 -26.312500 238.857239
[R_weapon_bone]
19 155.664093 0.002503 -0.000030 0.003487 0.001180 -90.988930 155.664078
20 155.664093 0.002503 -0.000030 0.003487 0.001180 -90.988930 155.664078
[R_front_hand01_01]
19 87.624611 14.231146 22.918642 -141.470367 -54.661583 46.147419 91.683487
20 87.624611 14.231146 22.918642 -142.976730 -55.478233 47.985161 91.683487
[R_front_hand02_01]
19 89.356956 14.367283 -19.491137 142.182632 53.068478 48.753601 92.579636
20 89.356956 14.367283 -19.491137 143.617310 53.874451 50.539894 92.579636
[R_front_hand03_01]
19 87.286232 -22.307278 -0.143439 0.083738 -0.444646 -65.861656 90.091743
20 87.286232 -22.307278 -0.143439 0.095752 -0.445027 -67.192543 90.091743
[R_front_hand01_02]
19 71.020905 0.000060 0.000119 0.002323 -0.000334 106.381721 71.020905
20 71.020905 0.000060 0.000119 0.002323 -0.000334 106.381706 71.020905
[R_front_hand02_02]
19 71.020844 -0.000030 -0.000119 0.002323 -0.000334 106.381721 71.020836
20 71.020844 -0.000030 -0.000119 0.002323 -0.000334 106.381706 71.020836
[R_front_hand03_02]
19 71.020905 0.000000 0.000030 0.002323 -0.000334 106.381721 71.020905
20 71.020905 0.000000 0.000030 0.002323 -0.000334 106.381706 71.020905
[null_rope01_connect]
19 328.732483 0.000000 -0.000238 -124.349945 -70.242325 -155.977768 328.732483
20 328.732483 0.000000 -0.000238 -128.979492 -67.415215 -151.829758 328.732483
[Rope1_Seg01]
19 -0.000022 -0.000044 0.000087 67.578552 -18.725084 -135.129562 0.000100
20 -0.000021 -0.000042 0.000084 69.597794 -18.320793 -136.719849 0.000096
[Rope1_Seg02]
19 139.999863 -0.000179 0.000000 -3.495733 3.885842 0.784100 139.999863
20 139.999863 -0.000179 0.000000 -2.435793 2.634057 0.717563 139.999863
[Rope1_Seg03]
19 139.999924 0.000060 -0.000060 -1.150709 2.760572 -1.624121 139.999924
20 139.999924 0.000060 -0.000060 -0.938904 1.967804 -0.904856 139.999924
[Rope1_Seg04]
19 139.999924 -0.000060 -0.000119 -3.105270 3.218343 0.196522 139.999924
20 139.999924 -0.000060 -0.000119 0.679518 1.381589 -2.453506 139.999924
[Rope1_Seg05]
19 139.999832 0.000119 -0.000060 -15.580266 7.680005 17.034447 139.999832
20 139.999832 0.000119 -0.000060 -14.368104 7.761061 14.355712 139.999832
[Rope1_Seg06]
19 139.999954 0.000119 -0.000060 -7.853706 2.026123 15.829689 139.999954
20 139.999954 0.000119 -0.000060 -10.140233 3.837038 19.744602 139.999954
[Rope1_Seg07]
19 139.999985 0.000060 0.000000 -2.946355 0.115579 9.041887 139.999985
20 139.999985 0.000060 0.000000 -3.298666 0.354931 10.684230 139.999985
[Rope1_Seg09]
19 121.602913 0.000119 -0.000089 -89.793175 -1.359789 0.847147 121.602913
20 121.602913 0.000119 -0.000089 -89.793175 -1.359789 0.847147 121.602913
[L_mid_hand01]
19 103.859421 1.038730 8.195221 130.544373 -67.584534 -38.866943 104.187431
20 103.859421 1.038730 8.195221 130.544373 -67.584534 -38.866943 104.187431
[L_mid_hand02]
19 105.572853 -4.139662 -10.864139 -168.923172 43.409309 -73.498886 106.211075
20 105.572853 -4.139662 -10.864139 -168.923172 43.409309 -73.498894 106.211075
[L_mid_hand03]
19 104.641464 17.579376 -3.913581 -6.012627 17.808174 74.893669 106.179977
20 104.641464 17.579376 -3.913581 -6.012626 17.808172 74.893661 106.179977
[null_rope02_connect]
19 328.732849 0.000179 -0.000119 -160.589600 76.655533 -61.172493 328.732849
20 328.732849 0.000179 -0.000119 -161.972443 75.827873 -62.418335 328.732849
[Rope2_Seg01]
19 0.000054 0.000087 0.000000 29.117281 -20.420040 -45.840725 0.000103
20 0.000055 0.000084 0.000000 18.311398 -16.390064 -38.948055 0.000100
[Rope2_Seg02]
19 139.999741 -0.000060 -0.000119 25.129751 -15.256966 -19.469891 139.999756
20 139.999741 -0.000060 -0.000119 29.451630 -15.027258 -20.766901 139.999756
[Rope2_Seg03]
19 140.000107 0.000030 0.000000 10.639873 -15.520427 -9.499175 140.000107
20 140.000107 0.000030 0.000000 12.406478 -18.370686 -9.802855 140.000107
[Rope2_Seg04]
19 139.999802 0.000000 -0.000060 2.119748 -6.273236 -1.947550 139.999802
20 139.999802 0.000000 -0.000060 3.175518 -9.928973 -2.861854 139.999802
[Rope2_Seg05]
19 139.999985 -0.000060 0.000119 -1.436289 2.532251 2.552614 139.999985
20 139.999985 -0.000060 0.000119 -0.665040 1.620640 1.124964 139.999985
[Rope2_Seg06]
19 139.999893 -0.000030 -0.000119 -2.440194 4.685781 3.749419 139.999893
20 139.999893 -0.000030 -0.000119 -2.305711 6.842210 2.857279 139.999893
[Rope2_Seg07]
19 139.999893 0.000060 -0.000060 -1.115178 1.388654 1.724354 139.999893
20 139.999893 0.000060 -0.000060 -1.303181 2.739570 1.504246 139.999893
[Rope2_Seg09]
19 121.338966 0.000089 -0.000060 33.793236 -1.359788 -0.847141 121.338966
20 121.338966 0.000089 -0.000060 33.793236 -1.359788 -0.847141 121.338966
[R_mid_hand01]
19 104.680779 11.144459 -10.335981 -20.399708 43.830379 64.493828 105.778534
20 104.680779 11.144459 -10.335981 -17.390713 44.882233 68.793839 105.778534
[R_mid_hand02]
19 104.070427 2.443552 8.231699 55.242649 -64.206009 32.532055 104.424065
20 104.070427 2.443552 8.231699 50.967758 -66.804398 37.227440 104.424065
[R_mid_hand03]
19 106.028137 -11.221827 -5.996406 -175.861618 15.275426 -71.940254 106.788818
20 106.028137 -11.221827 -5.996406 -176.756866 15.486363 -75.308266 106.788818
[spine02]
19 129.756927 0.001550 0.000119 0.524662 -4.025641 -15.286874 129.756927
20 129.756927 0.001550 0.000119 0.519308 -4.026342 -15.204302 129.756927
[spine03]
19 78.614250 0.081547 -4.899003 1.995439 3.783727 17.947044 78.766792
20 78.614265 0.081551 -4.899002 1.991986 3.784942 17.891842 78.766808
[pelvis]
19 169.435242 0.051022 0.000000 -0.070045 -0.177849 17.083111 169.435257
20 169.435242 0.051022 0.000000 -0.069882 -0.177913 16.978083 169.435257
[null_rope03_connect]
19 -1.257226 -2.466202 137.391083 -43.946114 -84.297623 111.630035 137.418976
20 -1.257226 -2.466202 137.391083 -56.284908 -84.881821 123.050835 137.418976
[null_rope04_connect]
19 -1.259640 -2.480268 -137.844437 -43.946114 -84.297623 111.630035 137.872513
20 -1.259640 -2.480268 -137.844437 -56.284908 -84.881821 123.050835 137.872513
[Rope3_Seg01]
19 -0.000034 0.000000 -0.000065 -130.693634 2.462968 -79.198708 0.000074
20 -0.000034 0.000000 -0.000069 -130.696350 -2.388188 -76.091980 0.000077
[Rope3_Seg02]
19 139.999924 -0.000119 0.000060 0.647699 7.459934 2.001705 139.999924
20 139.999924 -0.000119 0.000060 0.169115 2.945605 3.816154 139.999924
[Rope3_Seg03]
19 139.999924 -0.000119 0.000119 2.057572 11.281717 2.745074 139.999924
20 139.999924 -0.000119 0.000119 0.370421 4.910223 8.008818 139.999924
[Rope3_Seg04]
19 139.999924 0.000119 0.000000 6.461917 18.417822 3.654983 139.999924
20 139.999924 0.000119 0.000000 2.227407 11.487584 14.431090 139.999924
[Rope3_Seg05]
19 139.999924 -0.000238 0.000060 -4.435690 -10.781604 0.843020 139.999924
20 139.999924 -0.000238 0.000060 3.211727 0.824767 -11.060636 139.999924
[Rope3_Seg06]
19 139.999893 -0.000119 -0.000060 -2.354433 -9.690839 -0.488785 139.999893
20 139.999893 -0.000119 -0.000060 0.890991 0.391174 -1.746205 139.999893
[Rope3_Seg07]
19 139.999771 0.000060 -0.000119 -0.251037 -3.297924 -0.159335 139.999771
20 139.999771 0.000060 -0.000119 0.761237 0.274538 -0.871931 139.999771
[Rope3_Seg08]
19 139.999985 -0.000060 0.000000 0.136986 -1.946909 -0.104543 139.999985
20 139.999985 -0.000060 0.000000 0.678563 0.153010 -0.501902 139.999985
[Rope3_Seg09]
19 90.185997 -0.000179 -0.000060 89.793228 -1.359877 -0.847183 90.185997
20 90.185997 -0.000179 -0.000060 89.793228 -1.359877 -0.847183 90.185997
[R_rear_hand01]
19 103.366196 -6.073594 -10.757982 -175.914093 24.346794 -69.567551 104.101845
20 103.366196 -6.073594 -10.757982 -177.218140 24.518015 -72.727440 104.101845
[R_rear_hand02]
19 100.509819 12.039542 -7.992327 -15.704353 35.886917 67.395004 101.543350
20 100.509819 12.039542 -7.992327 -13.655105 36.621037 70.859291 101.543350
[R_rear_hand03]
19 101.539970 5.215704 5.435467 74.640694 -68.020943 18.152250 101.819031
20 101.539970 5.215704 5.435467 72.467628 -70.792900 20.476631 101.819031
[Rope4_Seg01]
19 0.000010 0.000038 -0.000114 51.414383 -8.831718 -127.390450 0.000121
20 0.000010 0.000038 -0.000114 51.987114 -9.862038 -128.711929 0.000121
[Rope4_Seg02]
19 139.999985 0.000060 0.000119 2.098278 7.220396 7.866885 139.999985
20 139.999985 0.000060 0.000119 0.419275 6.563473 3.479041 139.999985
[Rope4_Seg03]
19 139.999924 0.000000 -0.000238 1.853302 9.853743 10.407282 139.999924
20 139.999924 0.000000 -0.000238 0.713691 11.707770 5.774748 139.999924
[Rope4_Seg04]
19 139.999985 0.000000 0.000119 1.236385 15.398316 17.069557 139.999985
20 139.999985 0.000000 0.000119 4.533378 32.130070 13.998496 139.999985
[Rope4_Seg05]
19 139.999802 -0.000060 -0.000119 0.797090 -0.375350 -2.696676 139.999802
20 139.999802 -0.000060 -0.000119 -3.808028 -18.991064 2.801425 139.999802
[Rope4_Seg06]
19 139.999924 0.000000 0.000060 1.788445 -6.655224 -9.337865 139.999924
20 139.999924 0.000000 0.000060 -0.148468 -8.960532 -0.869726 139.999924
[Rope4_Seg07]
19 139.999802 0.000000 0.000000 0.326839 -1.677876 -2.610020 139.999802
20 139.999802 0.000000 0.000000 0.112228 -2.407218 0.152658 139.999802
[Rope4_Seg08]
19 139.999924 0.000000 0.000119 -1.386974 -0.900968 -1.421872 139.999924
20 139.999924 0.000000 0.000119 -1.443637 -1.332707 0.087701 139.999924
[Rope4_Seg09]
19 90.185791 0.000060 0.000060 -135.617828 2.228885 0.850567 90.185791
20 90.185791 0.000060 0.000060 -135.617828 2.228885 0.850567 90.185791
[L_rear_hand01]
19 101.696655 -8.392275 -7.654577 -12.874829 -36.868488 107.832764 102.329041
20 101.696655 -8.392275 -7.654577 -12.874833 -36.868488 107.832779 102.329041
[L_rear_hand02]
19 102.726799 -1.568258 5.773216 71.484581 71.816628 158.486160 102.900848
20 102.726799 -1.568258 5.773216 71.484581 71.816628 158.486160 102.900848
[L_rear_hand03]
19 104.552910 9.721220 -10.420293 -177.714203 -24.565960 -106.089035 105.519653
20 104.552910 9.721220 -10.420293 -177.714203 -24.565960 -106.089035 105.519653
